# xmcd
#
# Track frame offsets:
#	150
#	16296
#	40477
#	55947
#	69441
#	90017
#	107617
#	120887
#	134541
#	145815
#	156869
#	171493
#	172630
#	173553
#	174439
#	175335
#	176376
#	177342
#	178308
#	179312
#	180469
#	181629
#	182562
#	183448
#	184332
#	185342
#	186285
#	187259
#	188224
#	189316
#	190496
#	191435
#	192349
#	193315
#	194329
#	195248
#	196195
#	197142
#	198273
#	199198
#	200147
#	201017
#	201856
#	202989
#	203946
#	204856
#	205766
#	206699
#	207953
#	208857
#	209714
#	210637
#	211647
#	212584
#	213560
#	214446
#	215422
#	216577
#	217438
#	218334
#	219240
#	220250
#	221215
#	222156
#	223046
#
# Disc length: 2982 seconds
#
# Revision: 1
# Processed by: cddbd v1.5.2PL0 Copyright (c) Steve Scherf et al.
# Submitted via: audiograbber 1.83.01
#
DISCID=1a0ba441
DTITLE=Various Artist - CDX 626
DYEAR=2015
DGENRE=Country
TTITLE0=Carrie Underwood - Heartbeat
TTITLE1=Eric Church - Mr Misunderstood
TTITLE2=Tony Jackson - Drink By Drink
TTITLE3=Ray Price - No More Songs To Sing
TTITLE4=Lloyd Tosoff and The Redneck Allstars - One Shot At A Time
TTITLE5=Frank Ortega - Tell Me
TTITLE6=Teea Goans - Christmas Time Is Here
TTITLE7=SarBeth - Cowboy For Christmas
TTITLE8=Stephanie Rabus - That Red Nosed Reindeer
TTITLE9=Haley and Michaels - The Very Merry Little Christmas Medley
TTITLE10=Lee Anna McGuire - You And Me And The Christmas Tree
TTITLE11=Dave And Whitney  - Best In Today's Hot New Country (Liner)
TTITLE12=Dave And Whitney  - Today's Best Country
TTITLE13=Dave And Whitney  - Kickin' Country
TTITLE14=Dave And Whitney  - Hometown Country
TTITLE15=Dave And Whitney  - Super Country
TTITLE16=Dave And Whitney  - Today's Hot Country
TTITLE17=Dave And Whitney  - Best In Today's Country Music
TTITLE18=Dave And Whitney  - More Of The Country You Love Next
TTITLE19=Dave And Whitney  - Howlin' Country
TTITLE20=Emily Haines - My New Single
TTITLE21=Emily Haines - Today's Best Country
TTITLE22=Emily Haines - Kickin' Country
TTITLE23=Emily Haines - Hometown Country
TTITLE24=Emily Haines - Super Country
TTITLE25=Emily Haines - Today's Hot Country Music
TTITLE26=Emily Haines - The Best In Today's Country Music
TTITLE27=Emily Haines - More Of The Country You Love
TTITLE28=Emily Haines - Howlin' Country
TTITLE29=Makenna and Brock - Today's Hot New Country Music
TTITLE30=Makenna and Brock - Today's Best Country
TTITLE31=Makenna and Brock - Kickin' Country
TTITLE32=Makenna and Brock - Hometown Country
TTITLE33=Makenna and Brock - Super Country
TTITLE34=Makenna and Brock - Today's Hot Country Music
TTITLE35=Makenna and Brock - Best In Today's Country Music
TTITLE36=Makenna and Brock - More Of The Country You Love Next
TTITLE37=Makenna and Brock - Howlin' Country
TTITLE38=McKenna Faith - Hometown Country
TTITLE39=McKenna Faith - Howlin' Country
TTITLE40=McKenna Faith - Kickin' Country
TTITLE41=McKenna Faith - More Of The Country You Love
TTITLE42=McKenna Faith - My New Single
TTITLE43=McKenna Faith - Super Country
TTITLE44=McKenna Faith - Today's Best Country
TTITLE45=McKenna Faith - The Best In Today's Country Music
TTITLE46=McKenna Faith - Today's Hot Country
TTITLE47=Ward Davis - The Best In Today's Hot New Country Music
TTITLE48=Ward Davis - Today's Best Country
TTITLE49=Ward Davis - Kickin' Country
TTITLE50=Ward Davis - Hometown Country
TTITLE51=Ward Davis - Super Country
TTITLE52=Ward Davis - Today's Hot Country
TTITLE53=Ward Davis - The Best In Today's Country Music
TTITLE54=Ward Davis - More Of The Country You Love
TTITLE55=Ward Davis - Howlin' Country
TTITLE56=Zach Linley - The Best In Today's Hot New Country
TTITLE57=Zach Linley - Kickin' Country
TTITLE58=Zach Linley - Today's Best Country
TTITLE59=Zach Linley - Hometown Country
TTITLE60=Zach Linley - Super Country
TTITLE61=Zach Linley - Today's Hot Country
TTITLE62=Zach Linley - The Best In Today's Country Music
TTITLE63=Zach Linley - More Of The Country You Love
TTITLE64=Zach Linley - Howlin' Country
EXTD=
EXTT0=
EXTT1=
EXTT2=
EXTT3=
EXTT4=
EXTT5=
EXTT6=
EXTT7=
EXTT8=
EXTT9=
EXTT10=
EXTT11=
EXTT12=
EXTT13=
EXTT14=
EXTT15=
EXTT16=
EXTT17=
EXTT18=
EXTT19=
EXTT20=
EXTT21=
EXTT22=
EXTT23=
EXTT24=
EXTT25=
EXTT26=
EXTT27=
EXTT28=
EXTT29=
EXTT30=
EXTT31=
EXTT32=
EXTT33=
EXTT34=
EXTT35=
EXTT36=
EXTT37=
EXTT38=
EXTT39=
EXTT40=
EXTT41=
EXTT42=
EXTT43=
EXTT44=
EXTT45=
EXTT46=
EXTT47=
EXTT48=
EXTT49=
EXTT50=
EXTT51=
EXTT52=
EXTT53=
EXTT54=
EXTT55=
EXTT56=
EXTT57=
EXTT58=
EXTT59=
EXTT60=
EXTT61=
EXTT62=
EXTT63=
EXTT64=
PLAYORDER=
